<?xml version="1.0" encoding="UTF-8"?>
<!DOCTYPE svg PUBLIC "-//W3C//DTD SVG 1.1//EN" "http://www.w3.org/Graphics/SVG/1.1/DTD/svg11.dtd">
<!-- Creator: CorelDRAW 2019 (64-Bit) -->
<svg xmlns="http://www.w3.org/2000/svg" xml:space="preserve" width="2.7938mm" height="2.0318mm" version="1.1" style="shape-rendering:geometricPrecision; text-rendering:geometricPrecision; image-rendering:optimizeQuality; fill-rule:evenodd; clip-rule:evenodd"
viewBox="0 0 279.38 203.18"
 xmlns:xlink="http://www.w3.org/1999/xlink">
 <defs>
  <style type="text/css">
   <![CDATA[
    .fil0 {fill:#35FFE5}
   ]]>
  </style>
 </defs>
 <g id="Слой_x0020_1">
  <metadata id="CorelCorpID_0Corel-Layer"/>
  <path class="fil0" d="M152.39 50.79c0,-28.07 -22.73,-50.8 -50.8,-50.8 -28.07,0 -50.8,22.73 -50.8,50.8 0,28.07 22.73,50.8 50.8,50.8 28.07,0 50.8,-22.73 50.8,-50.8zm25.4 25.4l0 25.4 38.1 0 0 38.1 25.4 0 0 -38.1 38.1 0 0 -25.4 -38.1 0 0 -38.1 -25.4 0 0 38.1 -38.1 0zm-177.8 101.6l0 25.4 203.2 0 0 -25.4c0,-33.78 -67.69,-50.8 -101.6,-50.8 -33.91,0 -101.6,17.02 -101.6,50.8z"/>
 </g>
</svg>
