<?xml version="1.0" encoding="UTF-8"?>
<!DOCTYPE svg PUBLIC "-//W3C//DTD SVG 1.1//EN" "http://www.w3.org/Graphics/SVG/1.1/DTD/svg11.dtd">
<!-- Creator: CorelDRAW 2019 (64-Bit) -->
<svg xmlns="http://www.w3.org/2000/svg" xml:space="preserve" width="2.0318mm" height="2.0318mm" version="1.1" style="shape-rendering:geometricPrecision; text-rendering:geometricPrecision; image-rendering:optimizeQuality; fill-rule:evenodd; clip-rule:evenodd"
viewBox="0 0 203.18 203.18"
 xmlns:xlink="http://www.w3.org/1999/xlink">
 <defs>
  <style type="text/css">
   <![CDATA[
    .fil0 {fill:#171A1F}
   ]]>
  </style>
 </defs>
 <g id="Слой_x0020_1">
  <metadata id="CorelCorpID_0Corel-Layer"/>
  <path class="fil0" d="M180.62 -0.01l-158.05 0c-12.41,0 -22.58,10.17 -22.58,22.58l0 79.02c0,12.42 10.17,22.58 22.58,22.58l158.05 0c12.41,0 22.57,-10.16 22.57,-22.58l0 -79.02c0,-12.41 -10.16,-22.58 -22.57,-22.58zm0 67.74l-45.16 0c0,18.29 -15.58,33.86 -33.87,33.86 -18.28,0 -33.86,-15.57 -33.86,-33.86l-45.16 0 0 -45.16 158.05 0 0 45.16zm-45.16 79.02l67.73 0 0 33.87c0,12.41 -10.16,22.57 -22.57,22.57l-158.05 0c-12.41,0 -22.58,-10.16 -22.58,-22.57l0 -33.87 67.74 0c0,18.74 15.13,33.87 33.86,33.87 18.74,0 33.87,-15.13 33.87,-33.87z"/>
 </g>
</svg>
