<?xml version="1.0" encoding="UTF-8"?>
<!DOCTYPE svg PUBLIC "-//W3C//DTD SVG 1.1//EN" "http://www.w3.org/Graphics/SVG/1.1/DTD/svg11.dtd">
<!-- Creator: CorelDRAW 2019 (64-Bit) -->
<svg xmlns="http://www.w3.org/2000/svg" xml:space="preserve" width="2.0318mm" height="2.0318mm" version="1.1" style="shape-rendering:geometricPrecision; text-rendering:geometricPrecision; image-rendering:optimizeQuality; fill-rule:evenodd; clip-rule:evenodd"
viewBox="0 0 203.18 203.18"
 xmlns:xlink="http://www.w3.org/1999/xlink">
 <defs>
  <style type="text/css">
   <![CDATA[
    .fil0 {fill:#171A1F}
    .fil1 {fill:#F2F2F2}
   ]]>
  </style>
 </defs>
 <g id="Слой_x0020_1">
  <metadata id="CorelCorpID_0Corel-Layer"/>
  <path class="fil0" d="M117.42 114.94c0.87,2.02 1.04,4.31 0.58,6.91 -0.58,3.07 -1.93,5.47 -4.03,7.38 -2.14,1.86 -4.48,2.91 -7.04,3.15 -2.59,0.23 -5.75,0 -9.47,-0.67l-6.4 -1.23c-2.14,-0.37 -3.4,-0.77 -3.88,-1.06 -0.43,-0.31 -0.7,-0.77 -0.8,-1.4 -0.05,-0.43 0.15,-2.1 0.58,-4.74l3.54 -18.95 11.36 2.1c4.99,0.94 8.58,2.05 10.83,3.42 2.26,1.33 3.83,3.06 4.73,5.09zm0.6 -39.98c-2.02,-1.05 -5.85,-2.17 -11.49,-3.21l-9.6 -1.79 -4 21.36 9.62 1.81c5.01,0.92 8.84,1.16 11.4,0.77 2.57,-0.35 4.58,-1.28 6.14,-2.75 1.5,-1.44 2.49,-3.29 2.91,-5.54 0.44,-2.31 0.24,-4.37 -0.64,-6.2 -0.82,-1.83 -2.26,-3.26 -4.34,-4.45zm85.17 26.63c0,56.11 -45.49,101.6 -101.62,101.6 -56.11,0.01 -101.58,-45.49 -101.58,-101.6 0,-56.12 45.48,-101.6 101.59,-101.6 56.12,-0.02 101.61,45.46 101.61,101.6zm-59.79 -26.84c-1.75,-3.76 -4.64,-6.91 -8.62,-9.56 -1.54,-1.06 -3.47,-1.91 -5.59,-2.75l2.91 -15.43 -14.84 -2.77 -2.7 14.44 -9.55 -1.79 2.72 -14.41 -14.85 -2.8 -2.72 14.47 -22.66 -4.31 -2.26 12.12 3.47 0.7c2.31,0.36 3.84,0.9 4.56,1.5 0.75,0.53 1.2,1.2 1.4,1.99 0.21,0.79 0.07,2.49 -0.41,5.06l-9.15 48.89c-0.45,2.53 -0.94,4.14 -1.42,4.8 -0.48,0.67 -1.14,1.13 -2.05,1.37 -0.91,0.31 -2.48,0.17 -4.77,-0.27l-3.49 -0.63 -2.25 12.11 22.63 4.24 -2.67 14.46 14.84 2.77 2.68 -14.42 8.44 1.56c0.37,0.08 0.72,0.08 1.09,0.17l-2.68 14.46 14.82 2.77 2.96 -15.66c2.54,-0.03 4.85,-0.24 6.88,-0.6 5.49,-1.06 10.03,-3.33 13.57,-6.77 3.52,-3.33 5.75,-7.35 6.62,-12.01 0.73,-3.92 0.46,-7.6 -0.79,-11.08 -1.25,-3.54 -3.3,-6.44 -6.1,-8.82 -1.94,-1.67 -4.87,-3.4 -8.77,-5.21 4.05,-0.6 7.45,-1.67 10.15,-3.21 2.7,-1.54 4.95,-3.54 6.65,-5.88 1.73,-2.43 2.88,-5.06 3.41,-7.93 0.72,-3.9 0.28,-7.82 -1.46,-11.57z"/>
  <path class="fil1" d="M86.38 128.02c-0.05,-0.43 0.15,-2.1 0.58,-4.74l3.54 -18.95 11.36 2.1c4.99,0.94 8.58,2.05 10.83,3.42 2.26,1.33 3.83,3.06 4.73,5.09 0.87,2.02 1.04,4.31 0.58,6.91 -0.58,3.07 -1.93,5.47 -4.03,7.38 -2.14,1.86 -4.48,2.91 -7.04,3.15 -2.59,0.23 -5.75,0 -9.47,-0.67l-6.4 -1.23c-2.14,-0.37 -3.4,-0.77 -3.88,-1.06 -0.43,-0.31 -0.7,-0.77 -0.8,-1.4zm16.17 -34.89l-9.62 -1.81 4 -21.36 9.6 1.79c5.64,1.04 9.47,2.16 11.49,3.21 2.08,1.19 3.52,2.62 4.34,4.45 0.88,1.83 1.08,3.89 0.64,6.2 -0.42,2.25 -1.41,4.1 -2.91,5.54 -1.56,1.47 -3.57,2.4 -6.14,2.75 -2.56,0.39 -6.39,0.15 -11.4,-0.77zm40.85 -18.38c-1.75,-3.76 -4.64,-6.91 -8.62,-9.56 -1.54,-1.06 -3.47,-1.91 -5.59,-2.75l2.91 -15.43 -14.84 -2.77 -2.7 14.44 -9.55 -1.79 2.72 -14.41 -14.85 -2.8 -2.72 14.47 -22.66 -4.31 -2.26 12.12 3.47 0.7c2.31,0.36 3.84,0.9 4.56,1.5 0.75,0.53 1.2,1.2 1.4,1.99 0.21,0.79 0.07,2.49 -0.41,5.06l-9.15 48.89c-0.45,2.53 -0.94,4.14 -1.42,4.8 -0.48,0.67 -1.14,1.13 -2.05,1.37 -0.91,0.31 -2.48,0.17 -4.77,-0.27l-3.49 -0.63 -2.25 12.11 22.63 4.24 -2.67 14.46 14.84 2.77 2.68 -14.42 8.44 1.56c0.37,0.08 0.72,0.08 1.09,0.17l-2.68 14.46 14.82 2.77 2.96 -15.66c2.54,-0.03 4.85,-0.24 6.88,-0.6 5.49,-1.06 10.03,-3.33 13.57,-6.77 3.52,-3.33 5.75,-7.35 6.62,-12.01 0.73,-3.92 0.46,-7.6 -0.79,-11.08 -1.25,-3.54 -3.3,-6.44 -6.1,-8.82 -1.94,-1.67 -4.87,-3.4 -8.77,-5.21 4.05,-0.6 7.45,-1.67 10.15,-3.21 2.7,-1.54 4.95,-3.54 6.65,-5.88 1.73,-2.43 2.88,-5.06 3.41,-7.93 0.72,-3.9 0.28,-7.82 -1.46,-11.57z"/>
 </g>
</svg>
