<?xml version="1.0" encoding="UTF-8"?>
<!DOCTYPE svg PUBLIC "-//W3C//DTD SVG 1.1//EN" "http://www.w3.org/Graphics/SVG/1.1/DTD/svg11.dtd">
<!-- Creator: CorelDRAW 2019 (64-Bit) -->
<svg xmlns="http://www.w3.org/2000/svg" xml:space="preserve" width="2.0318mm" height="2.0318mm" version="1.1" style="shape-rendering:geometricPrecision; text-rendering:geometricPrecision; image-rendering:optimizeQuality; fill-rule:evenodd; clip-rule:evenodd"
viewBox="0 0 203.18 203.18"
 xmlns:xlink="http://www.w3.org/1999/xlink">
 <defs>
  <style type="text/css">
   <![CDATA[
    .fil0 {fill:#171A1F}
   ]]>
  </style>
 </defs>
 <g id="Слой_x0020_1">
  <metadata id="CorelCorpID_0Corel-Layer"/>
  <path class="fil0" d="M101.64 50.77c25.5,0 46.2,20.7 46.2,46.2 0,6.01 -1.2,11.65 -3.33,16.91l26.99 26.98c13.95,-11.64 24.94,-26.7 31.69,-43.89 -15.99,-40.56 -55.44,-69.3 -101.64,-69.3 -12.94,0 -25.32,2.31 -36.78,6.46l19.96 19.96c5.26,-2.12 10.9,-3.32 16.91,-3.32zm-92.41 -25.23l21.07 21.07 4.25 4.25c-15.44,12 -27.38,27.92 -34.56,46.11 15.99,40.57 55.44,69.31 101.65,69.31 14.32,0 28,-2.78 40.47,-7.77l3.88 3.89 27.08 26.98 11.73 -11.74 -163.83 -163.84 -11.74 11.74zm51.1 51.1l14.32 14.32c-0.46,1.95 -0.74,3.98 -0.74,6.01 0,15.34 12.39,27.72 27.73,27.72 2.03,0 4.06,-0.27 6,-0.74l14.33 14.33c-6.2,3.05 -13.03,4.89 -20.33,4.89 -25.51,0 -46.21,-20.69 -46.21,-46.2 0,-7.3 1.85,-14.14 4.9,-20.33l0 0zm39.83 -7.21l29.11 29.11 0.18 -1.48c0,-15.34 -12.38,-27.72 -27.72,-27.72l-1.57 0.09z"/>
 </g>
</svg>
