<svg width="24" height="24" viewBox="0 0 24 24" fill="none" xmlns="http://www.w3.org/2000/svg">
<path d="M19.14 12.94C19.18 12.64 19.2 12.33 19.2 12C19.2 11.68 19.18 11.36 19.13 11.06L21.16 9.48003C21.2475 9.40793 21.3072 9.30772 21.3291 9.19649C21.351 9.08527 21.3336 8.96989 21.28 8.87003L19.36 5.55003C19.3035 5.44959 19.2132 5.3724 19.1052 5.33214C18.9972 5.29187 18.8785 5.29112 18.77 5.33003L16.38 6.29003C15.88 5.91003 15.35 5.59003 14.76 5.35003L14.4 2.81003C14.3823 2.69556 14.3241 2.59123 14.236 2.516C14.148 2.44077 14.0358 2.39962 13.92 2.40003H10.08C9.84 2.40003 9.65 2.57003 9.61 2.81003L9.25 5.35003C8.66 5.59003 8.12 5.92003 7.63 6.29003L5.24 5.33003C5.02 5.25003 4.77 5.33003 4.65 5.55003L2.74 8.87003C2.62 9.08003 2.66 9.34003 2.86 9.48003L4.89 11.06C4.84 11.36 4.8 11.69 4.8 12C4.8 12.31 4.82 12.64 4.87 12.94L2.84 14.52C2.75252 14.5921 2.69275 14.6923 2.67087 14.8036C2.64899 14.9148 2.66635 15.0302 2.72 15.13L4.64 18.45C4.76 18.67 5.01 18.74 5.23 18.67L7.62 17.71C8.12 18.09 8.65 18.41 9.24 18.65L9.6 21.19C9.65 21.43 9.84 21.6 10.08 21.6H13.92C14.16 21.6 14.36 21.43 14.39 21.19L14.75 18.65C15.34 18.41 15.88 18.09 16.37 17.71L18.76 18.67C18.98 18.75 19.23 18.67 19.35 18.45L21.27 15.13C21.39 14.91 21.34 14.66 21.15 14.52L19.14 12.94V12.94ZM12 15.6C10.02 15.6 8.4 13.98 8.4 12C8.4 10.02 10.02 8.40003 12 8.40003C13.98 8.40003 15.6 10.02 15.6 12C15.6 13.98 13.98 15.6 12 15.6Z" fill="#171A1F"/>
</svg>
