<svg width="24" height="24" viewBox="0 0 24 24" fill="none" xmlns="http://www.w3.org/2000/svg">
<path d="M15 18.5C13.8112 18.5011 12.6451 18.1751 11.6291 17.5578C10.6132 16.9405 9.78669 16.0556 9.24 15H15V13H8.58C8.53 12.67 8.5 12.34 8.5 12C8.5 11.66 8.53 11.33 8.58 11H15V9H9.24C9.78766 7.94519 10.6144 7.06098 11.6301 6.4438C12.6458 5.82662 13.8115 5.50015 15 5.5C16.61 5.5 18.09 6.09 19.23 7.07L21 5.3C19.3534 3.81747 17.2157 2.998 15 3C11.08 3 7.76 5.51 6.52 9H3V11H6.06C5.97901 11.6642 5.97901 12.3358 6.06 13H3V15H6.52C7.76 18.49 11.08 21 15 21C17.31 21 19.41 20.13 21 18.7L19.22 16.93C18.09 17.91 16.62 18.5 15 18.5Z" fill="#171A1F"/>
</svg>
