<?xml version="1.0" standalone="no"?>
<!DOCTYPE svg PUBLIC "-//W3C//DTD SVG 20010904//EN"
 "http://www.w3.org/TR/2001/REC-SVG-20010904/DTD/svg10.dtd">
<svg version="1.0" xmlns="http://www.w3.org/2000/svg"
 width="20.000000pt" height="20.000000pt" viewBox="0 0 20.000000 20.000000"
 preserveAspectRatio="xMidYMid meet">
<metadata>
Created by potrace 1.16, written by Peter Selinger 2001-2019
</metadata>
<g transform="translate(0.000000,20.000000) scale(0.007843,-0.007813)"
fill="#000000" stroke="none">
<path unicode="&#xEA9E;" horiz-adv-x="256"  d="M740 2425 l0 -135 775 0 775 0 0 -160 0 -160 -1145 0 -1145 0 0 -420
0 -420 280 0 280 0 0 -565 0 -565 425 0 425 0 0 280 0 280 570 0 570 0 0 425
0 425 -640 0 -640 0 0 -130 0 -130 510 0 510 0 0 -160 0 -160 -575 0 -575 0 0
-280 0 -280 -155 0 -155 0 0 560 0 560 -285 0 -285 0 0 160 0 160 1145 0 1145
0 0 425 0 425 -905 0 -905 0 0 -135z"/>
</g>
</svg>
