<svg id="svg" version="1.1" xmlns="http://www.w3.org/2000/svg" xmlns:xlink="http://www.w3.org/1999/xlink" width="400" height="401.5686274509804" viewBox="0, 0, 400,401.5686274509804"><g id="svgg"><path id="path0" d="M115.297 21.500 L 115.400 43.000 236.900 43.101 L 358.400 43.201 358.400 67.401 L 358.400 91.600 179.200 91.600 L 0.000 91.600 0.000 158.200 L 0.000 224.800 43.600 224.800 L 87.200 224.800 87.200 312.367 C 87.200 360.529,87.309 400.219,87.443 400.567 C 87.663 401.141,93.973 401.200,154.843 401.200 L 222.000 401.200 222.000 357.800 L 222.000 314.400 310.500 314.353 C 359.175 314.327,399.225 314.334,399.500 314.370 C 399.898 314.422,400.000 300.720,400.000 247.018 L 400.000 179.600 299.833 179.600 C 244.741 179.600,199.387 179.707,199.047 179.837 C 198.407 180.083,198.015 219.332,198.636 220.950 C 198.865 221.547,205.378 221.600,278.643 221.600 L 358.400 221.600 358.400 246.000 L 358.400 270.400 268.900 270.446 C 219.675 270.471,179.085 270.460,178.700 270.421 C 178.037 270.353,178.000 272.686,178.000 314.375 L 178.000 358.400 154.400 358.400 L 130.800 358.400 130.800 270.600 C 130.800 183.083,130.797 182.800,130.000 182.750 C 129.560 182.722,129.020 182.655,128.800 182.600 C 128.580 182.545,108.870 182.478,85.000 182.450 L 41.600 182.400 41.600 158.200 L 41.600 134.000 220.800 134.000 L 400.000 134.000 400.000 67.000 L 400.000 0.000 257.597 0.000 L 115.193 0.000 115.297 21.500 " stroke="none" fill="#848484" fill-rule="evenodd"></path><path id="path1" d="M142.500 358.300 C 149.045 358.361,159.755 358.361,166.300 358.300 C 172.845 358.238,167.490 358.188,154.400 358.188 C 141.310 358.188,135.955 358.238,142.500 358.300 " stroke="none" fill="#888484" fill-rule="evenodd"></path><path id="path2" d="M142.500 358.300 C 149.045 358.361,159.755 358.361,166.300 358.300 C 172.845 358.238,167.490 358.188,154.400 358.188 C 141.310 358.188,135.955 358.238,142.500 358.300 " stroke="none" fill="#888484" fill-rule="evenodd"></path><path id="path3" d="M142.500 358.300 C 149.045 358.361,159.755 358.361,166.300 358.300 C 172.845 358.238,167.490 358.188,154.400 358.188 C 141.310 358.188,135.955 358.238,142.500 358.300 " stroke="none" fill="#888484" fill-rule="evenodd"></path><path id="path4" d="M142.500 358.300 C 149.045 358.361,159.755 358.361,166.300 358.300 C 172.845 358.238,167.490 358.188,154.400 358.188 C 141.310 358.188,135.955 358.238,142.500 358.300 " stroke="none" fill="#888484" fill-rule="evenodd"></path></g></svg>