<?xml version="1.0" encoding="UTF-8"?>
<!DOCTYPE svg PUBLIC "-//W3C//DTD SVG 1.1//EN" "http://www.w3.org/Graphics/SVG/1.1/DTD/svg11.dtd">
<!-- Creator: CorelDRAW 2019 (64-Bit) -->
<svg xmlns="http://www.w3.org/2000/svg" xml:space="preserve" width="2.0318mm" height="2.0318mm" version="1.1" style="shape-rendering:geometricPrecision; text-rendering:geometricPrecision; image-rendering:optimizeQuality; fill-rule:evenodd; clip-rule:evenodd"
viewBox="0 0 203.18 203.18"
 xmlns:xlink="http://www.w3.org/1999/xlink">
 <defs>
  <style type="text/css">
   <![CDATA[
    .fil7 {fill:#F2F2F2}
    .fil6 {fill:#FF0066}
    .fil2 {fill:#171A1F;fill-rule:nonzero}
    .fil3 {fill:#35FFE5;fill-rule:nonzero}
    .fil1 {fill:#818690;fill-rule:nonzero}
    .fil4 {fill:#C729FC;fill-rule:nonzero}
    .fil0 {fill:#F2F2F2;fill-rule:nonzero}
    .fil5 {fill:#FF0066;fill-rule:nonzero}
   ]]>
  </style>
 </defs>
 <g id="Слой_x0020_1">
  <metadata id="CorelCorpID_0Corel-Layer"/>
  <path class="fil0" d="M-1270.12 -187.27c-115,0 -208.22,-93.22 -208.22,-208.22 0,-114.99 93.22,-208.22 208.22,-208.22 115,0 208.22,93.23 208.22,208.22 0,115 -93.22,208.22 -208.22,208.22z"/>
  <path class="fil1" d="M-693.03 -187.27c-115,0 -208.22,-93.22 -208.22,-208.22 0,-114.99 93.22,-208.22 208.22,-208.22 115,0 208.22,93.23 208.22,208.22 0,115 -93.22,208.22 -208.22,208.22z"/>
  <path class="fil2" d="M-97.11 -187.27c-115,0 -208.22,-93.22 -208.22,-208.22 0,-114.99 93.22,-208.22 208.22,-208.22 114.99,0 208.22,93.23 208.22,208.22 0,115 -93.23,208.22 -208.22,208.22z"/>
  <path class="fil3" d="M463.13 -187.27c-115,0 -208.22,-93.22 -208.22,-208.22 0,-114.99 93.22,-208.22 208.22,-208.22 115,0 208.22,93.23 208.22,208.22 0,115 -93.22,208.22 -208.22,208.22z"/>
  <path class="fil4" d="M1018.74 -187.27c-115,0 -208.22,-93.22 -208.22,-208.22 0,-114.99 93.22,-208.22 208.22,-208.22 114.99,0 208.21,93.23 208.21,208.22 0,115 -93.22,208.22 -208.21,208.22z"/>
  <path class="fil5" d="M1574.34 -187.27c-115,0 -208.22,-93.22 -208.22,-208.22 0,-114.99 93.22,-208.22 208.22,-208.22 115,0 208.22,93.23 208.22,208.22 0,115 -93.22,208.22 -208.22,208.22z"/>
  <path class="fil6" d="M164.12 140.67l0 -52.11c0,-31.99 -17.09,-58.77 -46.9,-65.86l0 -7.08c0,-8.65 -6.98,-15.63 -15.63,-15.63 -8.65,0 -15.63,6.98 -15.63,15.63l0 7.08c-29.9,7.09 -46.89,33.77 -46.89,65.86l0 52.11 -20.84 20.84 0 10.42 166.73 0 0 -10.42 -20.84 -20.84zm-52.11 0l-20.84 0 0 -20.84 20.84 0 0 20.84zm0 -41.69l-20.84 0 0 -41.68 20.84 0 0 41.68zm-10.42 104.21c11.46,0 20.84,-9.38 20.84,-20.84l-41.68 0c0,5.53 2.2,10.83 6.1,14.74 3.92,3.91 9.22,6.1 14.74,6.1z"/>
  <polygon class="fil7" points="112.02,98.99 112.02,57.3 91.17,57.3 91.17,98.99 "/>
  <polygon class="fil7" points="112.02,119.83 91.17,119.83 91.17,140.66 112.02,140.66 "/>
  <g id="_1448097831712">
   <path class="fil6" d="M182.81 79.99l20.38 0c-1.53,-32.61 -17.63,-61.35 -41.99,-80l-14.47 14.57c10.52,7.52 19.22,17.3 25.46,28.62 6.24,11.32 9.87,23.9 10.62,36.81z"/>
   <path class="fil6" d="M56.54 14.56l-14.57 -14.57c-24.45,18.65 -40.56,47.39 -41.98,80l20.38 0c0.72,-12.93 4.35,-25.52 10.61,-36.85 6.26,-11.32 15,-21.09 25.56,-28.58l0 0z"/>
  </g>
 </g>
</svg>
