<?xml version="1.0" encoding="UTF-8"?>
<!DOCTYPE svg PUBLIC "-//W3C//DTD SVG 1.1//EN" "http://www.w3.org/Graphics/SVG/1.1/DTD/svg11.dtd">
<!-- Creator: CorelDRAW 2019 (64-Bit) -->
<svg xmlns="http://www.w3.org/2000/svg" xml:space="preserve" width="2.0318mm" height="2.0318mm" version="1.1" style="shape-rendering:geometricPrecision; text-rendering:geometricPrecision; image-rendering:optimizeQuality; fill-rule:evenodd; clip-rule:evenodd"
viewBox="0 0 203.18 203.18"
 xmlns:xlink="http://www.w3.org/1999/xlink">
 <defs>
  <style type="text/css">
   <![CDATA[
    .fil6 {fill:#171A1F}
    .fil2 {fill:#171A1F;fill-rule:nonzero}
    .fil3 {fill:#35FFE5;fill-rule:nonzero}
    .fil1 {fill:#818690;fill-rule:nonzero}
    .fil4 {fill:#C729FC;fill-rule:nonzero}
    .fil0 {fill:#F2F2F2;fill-rule:nonzero}
    .fil5 {fill:#FF0066;fill-rule:nonzero}
   ]]>
  </style>
 </defs>
 <g id="Слой_x0020_1">
  <metadata id="CorelCorpID_0Corel-Layer"/>
  <path class="fil0" d="M-1449.6 -110.78c-115,0 -208.22,-93.22 -208.22,-208.22 0,-114.99 93.22,-208.22 208.22,-208.22 115,0 208.22,93.23 208.22,208.22 0,115 -93.22,208.22 -208.22,208.22z"/>
  <path class="fil1" d="M-872.51 -110.78c-115,0 -208.22,-93.22 -208.22,-208.22 0,-114.99 93.22,-208.22 208.22,-208.22 115,0 208.22,93.23 208.22,208.22 0,115 -93.22,208.22 -208.22,208.22z"/>
  <path class="fil2" d="M-276.59 -110.78c-115,0 -208.22,-93.22 -208.22,-208.22 0,-114.99 93.22,-208.22 208.22,-208.22 114.99,0 208.22,93.23 208.22,208.22 0,115 -93.23,208.22 -208.22,208.22z"/>
  <path class="fil3" d="M283.65 -110.78c-115,0 -208.22,-93.22 -208.22,-208.22 0,-114.99 93.22,-208.22 208.22,-208.22 115,0 208.22,93.23 208.22,208.22 0,115 -93.22,208.22 -208.22,208.22z"/>
  <path class="fil4" d="M839.26 -110.78c-115,0 -208.22,-93.22 -208.22,-208.22 0,-114.99 93.22,-208.22 208.22,-208.22 114.99,0 208.21,93.23 208.21,208.22 0,115 -93.22,208.22 -208.21,208.22z"/>
  <path class="fil5" d="M1394.86 -110.78c-115,0 -208.22,-93.22 -208.22,-208.22 0,-114.99 93.22,-208.22 208.22,-208.22 115,0 208.22,93.23 208.22,208.22 0,115 -93.22,208.22 -208.22,208.22z"/>
  <path class="fil6" d="M164.12 140.67l0 -52.11c0,-31.99 -17.09,-58.77 -46.9,-65.86l0 -7.08c0,-8.65 -6.98,-15.63 -15.63,-15.63 -8.65,0 -15.63,6.98 -15.63,15.63l0 7.08c-29.9,7.09 -46.89,33.77 -46.89,65.86l0 52.11 -20.84 20.84 0 10.42 166.73 0 0 -10.42 -20.84 -20.84zm-62.53 62.52c11.46,0 20.84,-9.38 20.84,-20.84l-41.68 0c0,5.53 2.2,10.83 6.1,14.74 3.92,3.91 9.22,6.1 14.74,6.1z"/>
 </g>
</svg>
