<svg width="16" height="16" viewBox="0 0 16 16" fill="none" xmlns="http://www.w3.org/2000/svg">
<path d="M8 8C10.2091 8 12 6.20914 12 4C12 1.79086 10.2091 0 8 0C5.79086 0 4 1.79086 4 4C4 6.20914 5.79086 8 8 8Z" fill="#171A1F"/>
<path d="M7.2 14.1C6.4 13.3 6 12.3 6 11.2C6 10.8 6.1 10.5 6.2 10.1C3.9 10.3 3 10.7 2 11.2C1.3 11.5 0 12.7 0 13.5V16H9.2L7.2 14.1Z" fill="#171A1F"/>
<path d="M15.4 9.60001C14.4 8.60001 12.8 8.80001 12 9.90001C11.2 8.80001 9.6 8.60001 8.6 9.60001C7.7 10.4 7.7 11.8 8.6 12.6L12 16L15.4 12.7C16.2 11.8 16.2 10.5 15.4 9.60001Z" fill="#171A1F"/>
</svg>
