<svg width="24" height="24" viewBox="0 0 24 24" fill="none" xmlns="http://www.w3.org/2000/svg">
<path fill-rule="evenodd" clip-rule="evenodd" d="M11 17.5L13.5 15C13 14.5 11.5 14 11 14C8.33 14 3 15.34 3 18V20H11V17.5ZM11 12C13.21 12 15 10.21 15 8C15 5.79 13.21 4 11 4C8.79 4 7 5.79 7 8C7 10.21 8.79 12 11 12Z" fill="#171A1F"/>
<path d="M13 18.3336V20H14.6664L19.5813 15.0851L17.9149 13.4187L13 18.3336ZM20.87 13.7964C20.9112 13.7553 20.9439 13.7065 20.9662 13.6527C20.9885 13.5989 21 13.5413 21 13.4831C21 13.4249 20.9885 13.3673 20.9662 13.3135C20.9439 13.2598 20.9112 13.2109 20.87 13.1698L19.8302 12.13C19.7891 12.0888 19.7402 12.0561 19.6865 12.0338C19.6327 12.0115 19.5751 12 19.5169 12C19.4587 12 19.4011 12.0115 19.3473 12.0338C19.2935 12.0561 19.2447 12.0888 19.2036 12.13L18.3904 12.9432L20.0568 14.6096L20.87 13.7964Z" fill="#171A1F"/>
</svg>
