<svg width="16" height="16" viewBox="0 0 16 16" fill="none" xmlns="http://www.w3.org/2000/svg">
<path d="M5 5V1C5 0.4 4.6 0 4 0C3.4 0 3 0.4 3 1V5C3 5.6 3.4 6 4 6C4.6 6 5 5.6 5 5Z" fill="#171A1F"/>
<path d="M1 11C1 12.3 1.9 13.4 3 13.8V15C3 15.6 3.4 16 4 16C4.6 16 5 15.6 5 15V14V13.8C6.2 13.4 7 12.3 7 11C7 9.3 5.7 8 4 8C2.3 8 1 9.3 1 11Z" fill="#171A1F"/>
<path d="M11 11V15C11 15.6 11.4 16 12 16C12.6 16 13 15.6 13 15V11C13 10.4 12.6 10 12 10C11.4 10 11 10.4 11 11Z" fill="#171A1F"/>
<path d="M9 5C9 6.7 10.3 8 12 8C13.7 8 15 6.7 15 5C15 3.7 14.1 2.6 13 2.2V1C13 0.4 12.6 0 12 0C11.4 0 11 0.4 11 1V2.2C9.9 2.6 9 3.7 9 5Z" fill="#171A1F"/>
</svg>
