<?xml version="1.0" encoding="UTF-8"?>
<!DOCTYPE svg PUBLIC "-//W3C//DTD SVG 1.1//EN" "http://www.w3.org/Graphics/SVG/1.1/DTD/svg11.dtd">
<!-- Creator: CorelDRAW 2019 (64-Bit) -->
<svg xmlns="http://www.w3.org/2000/svg" xml:space="preserve" width="2.0318mm" height="2.0318mm" version="1.1" style="shape-rendering:geometricPrecision; text-rendering:geometricPrecision; image-rendering:optimizeQuality; fill-rule:evenodd; clip-rule:evenodd"
viewBox="0 0 203.18 203.18"
 xmlns:xlink="http://www.w3.org/1999/xlink">
 <defs>
  <style type="text/css">
   <![CDATA[
    .fil0 {fill:#171A1F}
   ]]>
  </style>
 </defs>
 <g id="Слой_x0020_1">
  <metadata id="CorelCorpID_0Corel-Layer"/>
  <path class="fil0" d="M101.59 32.31c-46.18,0 -85.62,28.73 -101.6,69.28 15.98,40.55 55.42,69.28 101.6,69.28 46.18,0 85.62,-28.73 101.6,-69.28 -15.98,-40.55 -55.42,-69.28 -101.6,-69.28zm0 115.46c-25.49,0 -46.18,-20.69 -46.18,-46.18 0,-25.49 20.69,-46.18 46.18,-46.18 25.49,0 46.18,20.69 46.18,46.18 0,25.49 -20.69,46.18 -46.18,46.18zm0 -73.89c-15.33,0 -27.71,12.38 -27.71,27.71 0,15.33 12.38,27.71 27.71,27.71 15.33,0 27.71,-12.38 27.71,-27.71 0,-15.33 -12.38,-27.71 -27.71,-27.71z"/>
 </g>
</svg>
