<svg width="24" height="24" viewBox="0 0 24 24" fill="none" xmlns="http://www.w3.org/2000/svg">
<path fill-rule="evenodd" clip-rule="evenodd" d="M9 19C8 19 5 16 5 15C5 14.667 5.333 14 6 13L2 12L4 9L8 10C12 4 18 2 22 2C22 6 20 12 14 16L15 20L12 22L11 18C10 18.667 9.333 19 9 19ZM15.5 10C15.8978 10 16.2794 9.84196 16.5607 9.56066C16.842 9.27936 17 8.89782 17 8.5C17 8.10218 16.842 7.72064 16.5607 7.43934C16.2794 7.15804 15.8978 7 15.5 7C15.1022 7 14.7206 7.15804 14.4393 7.43934C14.158 7.72064 14 8.10218 14 8.5C14 8.89782 14.158 9.27936 14.4393 9.56066C14.7206 9.84196 15.1022 10 15.5 10V10ZM4 16L5 17.5C4.333 18.167 4 19 4 20C5 20 5.833 19.667 6.5 19L8 20C6.667 21.333 4.667 22 2 22C2 19.333 2.667 17.333 4 16Z" fill="#171A1F"/>
</svg>
