<?xml version="1.0" encoding="UTF-8"?>
<!DOCTYPE svg PUBLIC "-//W3C//DTD SVG 1.1//EN" "http://www.w3.org/Graphics/SVG/1.1/DTD/svg11.dtd">
<!-- Creator: CorelDRAW 2019 (64-Bit) -->
<svg xmlns="http://www.w3.org/2000/svg" xml:space="preserve" width="2.0318mm" height="2.0318mm" version="1.1" style="shape-rendering:geometricPrecision; text-rendering:geometricPrecision; image-rendering:optimizeQuality; fill-rule:evenodd; clip-rule:evenodd"
viewBox="0 0 203.18 203.18"
 xmlns:xlink="http://www.w3.org/1999/xlink">
 <defs>
  <style type="text/css">
   <![CDATA[
    .fil0 {fill:#171A1F}
   ]]>
  </style>
 </defs>
 <g id="Слой_x0020_1">
  <metadata id="CorelCorpID_0Corel-Layer"/>
  <path class="fil0" d="M86.78 108.21c-3.25,-15.57 -14.74,-28.24 -29.99,-33.03 -4.22,-1.27 -8.58,-1.94 -12.98,-1.94 -10.9,0.05 -21.46,4.1 -29.5,11.4 -17.91,16.27 -19.18,44.02 -2.91,61.92 16.28,17.9 44.02,19.17 61.92,2.9 9.15,-8.31 14.38,-20.05 14.34,-32.41 0,-2.95 -0.31,-5.94 -0.88,-8.84zm-31.29 3.02l-17.49 0 0 -5.83 23.31 0 0 -11.65 -11.65 0 0 -5.83 -11.66 0 0 5.83 -5.83 0c-3.21,0 -5.82,2.62 -5.82,5.83l0 17.48c0,3.21 2.61,5.83 5.82,5.83l17.49 0 0 5.83 -23.31 0 0 11.65 11.65 0 0 5.83 11.66 0 0 -5.83 5.83 0c3.21,0 5.82,-2.62 5.82,-5.83l0 -17.48c0,-3.21 -2.61,-5.83 -5.82,-5.83z"/>
  <path class="fil0" d="M104.46 127.69l-0.27 -15.57c-2.72,-0.04 -5.4,-0.13 -7.95,-0.3 0.13,1.75 0.22,3.47 0.22,5.19 0,3.43 -0.36,6.9 -1.02,10.29 2.91,0.26 5.94,0.39 9.02,0.39z"/>
  <path class="fil0" d="M152.61 54.91c-3.03,1.58 -6.24,2.86 -9.54,3.82 -9.89,2.99 -22.87,4.62 -36.41,4.62 -12.98,0 -25.33,-1.49 -34.88,-4.26 -3.3,-0.88 -6.46,-2.12 -9.5,-3.65l0.31 12.4c4.97,1.84 9.59,4.48 13.77,7.78 0.13,0.05 0.22,0.05 0.35,0.09 8.44,2.16 19.09,3.3 29.95,3.3 12.58,0 24.93,-1.58 33.86,-4.27 9.54,-2.9 11.66,-5.93 11.66,-6.51 0,-0.61 -0.05,-1.18 0.43,-1.8l0 -11.52z"/>
  <path class="fil0" d="M140.48 37.45c-8.93,-2.73 -21.29,-4.27 -33.87,-4.27 -12.66,0 -24.54,1.54 -33.42,4.27 -9.28,2.81 -11.3,5.58 -11.35,6.46 0,0 0.05,0 0.05,0.09 0.22,0.97 2.86,3.96 12.31,6.69 8.75,2.55 20.28,3.95 32.41,3.95 12.58,0 24.9,-1.53 33.82,-4.22 9.55,-2.86 11.7,-5.89 11.7,-6.51 0,-0.57 -2.11,-3.56 -11.65,-6.46z"/>
  <path class="fil0" d="M203.1 159.14l0 -13.2c-2.94,1.5 -6.02,2.77 -9.23,3.74 -9.85,2.99 -22.74,4.62 -36.33,4.62 -12.05,0 -23.79,-1.37 -33.03,-3.78 -3.78,-0.97 -7.43,-2.29 -10.95,-4.01l0.22 12.76c0,0.04 0,0.04 0,0.09 0,0.66 1.94,3.6 11.22,6.46 8.79,2.68 20.67,4.18 33.38,4.18 12.66,0 24.58,-1.54 33.46,-4.31 9.28,-2.9 11.31,-5.94 11.31,-6.55l-0.05 0z"/>
  <path class="fil0" d="M152.53 79.45c-3.04,1.54 -6.2,2.81 -9.5,3.78 -9.9,2.99 -22.87,4.62 -36.46,4.62 -6.69,0 -13.32,-0.44 -19.92,-1.28 3.56,4.93 6.2,10.47 7.87,16.36 3.78,0.27 7.87,0.44 12.09,0.44 0.14,0 0.31,0 0.44,0 7.22,-7.91 26.61,-11.87 45.48,-12.4l0 -11.52 0 0z"/>
  <path class="fil0" d="M193.56 125.36c-9.81,2.9 -22.56,4.49 -35.93,4.49 -12.97,0 -25.33,-1.5 -34.88,-4.27 -3.29,-0.92 -6.51,-2.15 -9.58,-3.69l0.17 10.11 0.05 3.7c3.43,4.26 19.83,9.76 44.2,9.76 12.7,0 24.71,-1.5 33.73,-4.22 9.5,-2.91 11.56,-5.9 11.56,-6.51 0,-0.49 0.27,-1.01 0.27,-1.45l0.04 0 0 -11.66c-3.08,1.54 -6.29,2.86 -9.63,3.74z"/>
  <path class="fil0" d="M191.49 104.03c-8.97,-2.73 -21.28,-4.18 -33.86,-4.18l-0.75 0c-11.7,0 -22.82,1.32 -31.36,3.74 -9.1,2.55 -12.22,5.46 -12.62,6.64 -0.04,0.09 -0.04,0.13 -0.04,0.18 0,0 0,0 0.09,0.17 0.26,0.93 2.85,3.92 12.31,6.69 8.75,2.51 20.28,3.91 32.41,3.91 12.54,0 24.41,-1.45 33.43,-4.13 9.76,-2.9 11.96,-5.94 12,-6.6l0 -0.04c-0.04,-0.66 -2.24,-3.56 -11.61,-6.38z"/>
  <path class="fil0" d="M104.59 137.32l0 -0.79c-4.05,-0.04 -7.92,-0.26 -11.65,-0.57 -2.03,5.23 -4.89,10.12 -8.45,14.47 6.73,1.1 13.55,1.71 20.37,1.8l-0.27 -14.91z"/>
 </g>
</svg>
