<?xml version="1.0" encoding="UTF-8"?>
<!DOCTYPE svg PUBLIC "-//W3C//DTD SVG 1.1//EN" "http://www.w3.org/Graphics/SVG/1.1/DTD/svg11.dtd">
<!-- Creator: CorelDRAW 2019 (64-Bit) -->
<svg xmlns="http://www.w3.org/2000/svg" xml:space="preserve" width="2.0318mm" height="2.0318mm" version="1.1" style="shape-rendering:geometricPrecision; text-rendering:geometricPrecision; image-rendering:optimizeQuality; fill-rule:evenodd; clip-rule:evenodd"
viewBox="0 0 203.18 203.18"
 xmlns:xlink="http://www.w3.org/1999/xlink">
 <defs>
  <style type="text/css">
   <![CDATA[
    .fil6 {fill:#35FFE5}
    .fil7 {fill:#F2F2F2}
    .fil2 {fill:#171A1F;fill-rule:nonzero}
    .fil3 {fill:#35FFE5;fill-rule:nonzero}
    .fil1 {fill:#818690;fill-rule:nonzero}
    .fil4 {fill:#C729FC;fill-rule:nonzero}
    .fil0 {fill:#F2F2F2;fill-rule:nonzero}
    .fil5 {fill:#FF0066;fill-rule:nonzero}
   ]]>
  </style>
 </defs>
 <g id="Слой_x0020_1">
  <metadata id="CorelCorpID_0Corel-Layer"/>
  <path class="fil0" d="M-1061.9 -183.44c-115,0 -208.22,-93.22 -208.22,-208.22 0,-114.99 93.22,-208.22 208.22,-208.22 115,0 208.22,93.23 208.22,208.22 0,115 -93.22,208.22 -208.22,208.22z"/>
  <path class="fil1" d="M-484.81 -183.44c-115,0 -208.22,-93.22 -208.22,-208.22 0,-114.99 93.22,-208.22 208.22,-208.22 115,0 208.22,93.23 208.22,208.22 0,115 -93.22,208.22 -208.22,208.22z"/>
  <path class="fil2" d="M111.11 -183.44c-115,0 -208.22,-93.22 -208.22,-208.22 0,-114.99 93.22,-208.22 208.22,-208.22 114.99,0 208.22,93.23 208.22,208.22 0,115 -93.23,208.22 -208.22,208.22z"/>
  <path class="fil3" d="M671.35 -183.44c-115,0 -208.22,-93.22 -208.22,-208.22 0,-114.99 93.22,-208.22 208.22,-208.22 115,0 208.22,93.23 208.22,208.22 0,115 -93.22,208.22 -208.22,208.22z"/>
  <path class="fil4" d="M1226.96 -183.44c-115,0 -208.22,-93.22 -208.22,-208.22 0,-114.99 93.22,-208.22 208.22,-208.22 114.99,0 208.21,93.23 208.21,208.22 0,115 -93.22,208.22 -208.21,208.22z"/>
  <path class="fil5" d="M1782.56 -183.44c-115,0 -208.22,-93.22 -208.22,-208.22 0,-114.99 93.22,-208.22 208.22,-208.22 115,0 208.22,93.23 208.22,208.22 0,115 -93.22,208.22 -208.22,208.22z"/>
  <path class="fil6" d="M159.65 67.72l-9.68 0 0 -19.35c0,-26.71 -21.67,-48.38 -48.38,-48.38 -26.7,0 -48.38,21.67 -48.38,48.38l0 19.35 -9.68 0c-10.64,0 -19.35,8.71 -19.35,19.35l0 96.77c0,10.64 8.71,19.35 19.35,19.35l116.12 0c10.64,0 19.35,-8.71 19.35,-19.35l0 -96.77c0,-10.64 -8.71,-19.35 -19.35,-19.35zm-28.06 0l-60 0 0 -19.35c0,-16.54 13.46,-30 30,-30 16.54,0 30,13.46 30,30l0 19.35z"/>
  <g id="_1448360918832">
   <rect class="fil7" x="95.34" y="119.34" width="12.47" height="50.93" rx="6.33" ry="8.47"/>
   <circle class="fil7" cx="101.59" cy="130.16" r="17.03"/>
  </g>
 </g>
</svg>
