<?xml version="1.0" encoding="UTF-8"?>
<!DOCTYPE svg PUBLIC "-//W3C//DTD SVG 1.1//EN" "http://www.w3.org/Graphics/SVG/1.1/DTD/svg11.dtd">
<!-- Creator: CorelDRAW 2019 (64-Bit) -->
<svg xmlns="http://www.w3.org/2000/svg" xml:space="preserve" width="2.0318mm" height="2.0318mm" version="1.1" style="shape-rendering:geometricPrecision; text-rendering:geometricPrecision; image-rendering:optimizeQuality; fill-rule:evenodd; clip-rule:evenodd"
viewBox="0 0 203.18 203.18"
 xmlns:xlink="http://www.w3.org/1999/xlink">
 <defs>
  <style type="text/css">
   <![CDATA[
    .fil1 {fill:white}
    .fil4 {fill:#171A1F;fill-rule:nonzero}
    .fil3 {fill:#818690;fill-rule:nonzero}
    .fil2 {fill:#EEEEEE;fill-rule:nonzero}
    .fil0 {fill:url(#id0)}
    .fil7 {fill:url(#id1)}
    .fil5 {fill:url(#id2)}
    .fil6 {fill:url(#id3)}
   ]]>
  </style>
  <linearGradient id="id0" gradientUnits="userSpaceOnUse" x1="-10.56" y1="189.37" x2="213.73" y2="18.26">
   <stop offset="0" style="stop-opacity:1; stop-color:aqua"/>
   <stop offset="0.458824" style="stop-opacity:1; stop-color:#33FFE6"/>
   <stop offset="1" style="stop-opacity:1; stop-color:#66FFCC"/>
  </linearGradient>
  <linearGradient id="id1" gradientUnits="userSpaceOnUse" x1="1103.65" y1="-772.35" x2="739.41" y2="-218.49">
   <stop offset="0" style="stop-opacity:1; stop-color:#FF0066"/>
   <stop offset="0.588235" style="stop-opacity:1; stop-color:#CC1999"/>
   <stop offset="1" style="stop-opacity:1; stop-color:#9933CC"/>
  </linearGradient>
  <linearGradient id="id2" gradientUnits="userSpaceOnUse" xlink:href="#id0" x1="152" y1="-191.35" x2="508.49" y2="-774.05">
  </linearGradient>
  <linearGradient id="id3" gradientUnits="userSpaceOnUse" x1="780.31" y1="-785.68" x2="457.39" y2="-207.84">
   <stop offset="0" style="stop-opacity:1; stop-color:#FF6600"/>
   <stop offset="0.811765" style="stop-opacity:1; stop-color:#FF3333"/>
   <stop offset="1" style="stop-opacity:1; stop-color:#FF0066"/>
  </linearGradient>
 </defs>
 <g id="Слой_x0020_1">
  <metadata id="CorelCorpID_0Corel-Layer"/>
  <path class="fil0" d="M138.53 83.13l0 -27.69c0.04,-4.56 -0.81,-9.06 -2.45,-13.27 -1.62,-4.17 -4.03,-8.08 -7.16,-11.5 -3.13,-3.43 -6.82,-6.21 -10.85,-8.23 -4.06,-2.03 -8.53,-3.34 -13.16,-3.8 -2.57,-0.25 -5.14,-0.25 -7.7,0.02l-0.07 0.01 -0.14 0.02 -0.08 0.01 -0.13 0.02c-4.15,0.54 -8.18,1.8 -11.9,3.68 -4.05,2.05 -7.71,4.82 -10.75,8.19 -3.03,3.36 -5.41,7.26 -7.03,11.51 -1.64,4.26 -2.5,8.78 -2.5,13.32l0.03 27.71 73.89 0zm-91.95 -34.31c-0.41,-1.4 -0.5,-2.92 -0.19,-4.45 1.38,-6.75 4.01,-13.12 7.66,-18.78 3.65,-5.66 8.39,-10.69 14,-14.78 5.61,-4.09 11.86,-7.08 18.38,-8.84 3.34,-0.9 6.77,-1.49 10.26,-1.76l0.05 -0.01 0.26 -0.02 0.06 0c6.47,-0.53 12.95,0.08 19.14,1.78 6.54,1.78 12.73,4.75 18.23,8.8 5.51,4.06 10.19,9.11 13.84,14.83 3.64,5.69 6.24,12.05 7.6,18.76l0.1 0.59c0.66,3.44 1,6.95 1,10.5l0.02 27.69 9.25 0c7.65,0 14.58,3.1 19.59,8.11 5.02,5.02 8.12,11.95 8.12,19.6l0 64.65c0,7.3 -2.86,13.97 -7.53,18.94l-0.59 0.65c-5.01,5.01 -11.94,8.11 -19.59,8.11l-129.3 0c-7.65,0 -14.58,-3.1 -19.59,-8.11 -5.01,-5.05 -8.12,-11.98 -8.12,-19.59l0 -64.65c0,-7.65 3.1,-14.58 8.12,-19.6 5.01,-5.01 11.94,-8.11 19.59,-8.11l9.24 0 0 -27.71c0.01,-2.22 0.14,-4.43 0.4,-6.6z"/>
  <rect class="fil1" x="95.35" y="114.76" width="12.47" height="50.93" rx="6.33" ry="8.47"/>
  <circle class="fil1" cx="101.59" cy="157.68" r="13.89"/>
  <path class="fil2" d="M-947.64 -483.37c0,-183.63 148.85,-332.48 332.47,-332.48 183.63,0 332.48,148.85 332.48,332.48 0,183.62 -148.85,332.47 -332.48,332.47 -183.62,0 -332.47,-148.85 -332.47,-332.47z"/>
  <path class="fil3" d="M-615.16 -483.37c0,-183.63 148.85,-332.48 332.47,-332.48 183.63,0 332.48,148.85 332.48,332.48 0,183.62 -148.85,332.47 -332.48,332.47 -183.62,0 -332.47,-148.85 -332.47,-332.47z"/>
  <path class="fil4" d="M-316.13 -483.37c0,-183.63 148.85,-332.48 332.47,-332.48 183.63,0 332.48,148.85 332.48,332.48 0,183.62 -148.85,332.47 -332.48,332.47 -183.62,0 -332.47,-148.85 -332.47,-332.47z"/>
  <path class="fil5" d="M16.35 -483.37c0,-183.63 148.85,-332.48 332.47,-332.48 183.63,0 332.48,148.85 332.48,332.48 0,183.62 -148.85,332.47 -332.48,332.47 -183.62,0 -332.47,-148.85 -332.47,-332.47z"/>
  <path class="fil6" d="M312.68 -483.37c0,-183.63 148.85,-332.48 332.47,-332.48 183.63,0 332.48,148.85 332.48,332.48 0,183.62 -148.85,332.47 -332.48,332.47 -183.62,0 -332.47,-148.85 -332.47,-332.47z"/>
  <path class="fil7" d="M609.01 -483.37c0,-183.63 148.85,-332.48 332.47,-332.48 183.63,0 332.48,148.85 332.48,332.48 0,183.62 -148.85,332.47 -332.48,332.47 -183.62,0 -332.47,-148.85 -332.47,-332.47z"/>
  <path class="fil3" d="M-820.65 -588.56c0,-34.09 27.64,-61.73 61.73,-61.73 34.09,0 61.73,27.64 61.73,61.73 0,34.09 -27.64,61.73 -61.73,61.73 -34.09,0 -61.73,-27.64 -61.73,-61.73z"/>
  <path class="fil4" d="M-820.65 -392.77c0,-34.09 27.64,-61.73 61.73,-61.73 34.09,0 61.73,27.64 61.73,61.73 0,34.09 -27.64,61.73 -61.73,61.73 -34.09,0 -61.73,-27.64 -61.73,-61.73z"/>
  <path class="fil2" d="M-508.45 -588.56c0,-34.09 27.64,-61.73 61.73,-61.73 34.09,0 61.73,27.64 61.73,61.73 0,34.09 -27.64,61.73 -61.73,61.73 -34.09,0 -61.73,-27.64 -61.73,-61.73z"/>
  <path class="fil4" d="M-508.45 -392.77c0,-34.09 27.64,-61.73 61.73,-61.73 34.09,0 61.73,27.64 61.73,61.73 0,34.09 -27.64,61.73 -61.73,61.73 -34.09,0 -61.73,-27.64 -61.73,-61.73z"/>
  <path class="fil2" d="M-194.9 -588.56c0,-34.09 27.64,-61.73 61.73,-61.73 34.09,0 61.73,27.64 61.73,61.73 0,34.09 -27.64,61.73 -61.73,61.73 -34.09,0 -61.73,-27.64 -61.73,-61.73z"/>
  <path class="fil3" d="M-194.9 -392.77c0,-34.09 27.64,-61.73 61.73,-61.73 34.09,0 61.73,27.64 61.73,61.73 0,34.09 -27.64,61.73 -61.73,61.73 -34.09,0 -61.73,-27.64 -61.73,-61.73z"/>
  <path class="fil2" d="M101.43 -588.56c0,-34.09 27.64,-61.73 61.73,-61.73 34.09,0 61.73,27.64 61.73,61.73 0,34.09 -27.64,61.73 -61.73,61.73 -34.09,0 -61.73,-27.64 -61.73,-61.73z"/>
  <path class="fil4" d="M101.43 -392.77c0,-34.09 27.64,-61.73 61.73,-61.73 34.09,0 61.73,27.64 61.73,61.73 0,34.09 -27.64,61.73 -61.73,61.73 -34.09,0 -61.73,-27.64 -61.73,-61.73z"/>
  <path class="fil2" d="M397.76 -588.56c0,-34.09 27.64,-61.73 61.73,-61.73 34.09,0 61.73,27.64 61.73,61.73 0,34.09 -27.64,61.73 -61.73,61.73 -34.09,0 -61.73,-27.64 -61.73,-61.73z"/>
  <path class="fil4" d="M397.76 -392.77c0,-34.09 27.64,-61.73 61.73,-61.73 34.09,0 61.73,27.64 61.73,61.73 0,34.09 -27.64,61.73 -61.73,61.73 -34.09,0 -61.73,-27.64 -61.73,-61.73z"/>
  <path class="fil2" d="M711.31 -588.56c0,-34.09 27.64,-61.73 61.73,-61.73 34.09,0 61.73,27.64 61.73,61.73 0,34.09 -27.64,61.73 -61.73,61.73 -34.09,0 -61.73,-27.64 -61.73,-61.73z"/>
  <path class="fil4" d="M711.31 -392.77c0,-34.09 27.64,-61.73 61.73,-61.73 34.09,0 61.73,27.64 61.73,61.73 0,34.09 -27.64,61.73 -61.73,61.73 -34.09,0 -61.73,-27.64 -61.73,-61.73z"/>
 </g>
</svg>
