<?xml version="1.0" encoding="UTF-8"?>
<!DOCTYPE svg PUBLIC "-//W3C//DTD SVG 1.1//EN" "http://www.w3.org/Graphics/SVG/1.1/DTD/svg11.dtd">
<!-- Creator: CorelDRAW 2019 (64-Bit) -->
<svg xmlns="http://www.w3.org/2000/svg" xml:space="preserve" width="2.0318mm" height="2.0318mm" version="1.1" style="shape-rendering:geometricPrecision; text-rendering:geometricPrecision; image-rendering:optimizeQuality; fill-rule:evenodd; clip-rule:evenodd"
viewBox="0 0 203.18 203.18"
 xmlns:xlink="http://www.w3.org/1999/xlink">
 <defs>
  <style type="text/css">
   <![CDATA[
    .fil1 {fill:#F2F2F2}
    .fil0 {fill:#FF0066}
   ]]>
  </style>
 </defs>
 <g id="Слой_x0020_1">
  <metadata id="CorelCorpID_0Corel-Layer"/>
  <path class="fil0" d="M159.65 67.72l-9.68 0 0 -19.35c0,-26.71 -21.67,-48.38 -48.38,-48.38 -26.7,0 -48.38,21.67 -48.38,48.38l18.38 0c0,-16.54 13.46,-30 30,-30 16.54,0 30,13.46 30,30l0 19.35 -88.06 0c-10.64,0 -19.35,8.71 -19.35,19.35l0 96.77c0,10.64 8.71,19.35 19.35,19.35l116.12 0c10.64,0 19.35,-8.71 19.35,-19.35l0 -96.77c0,-10.64 -8.71,-19.35 -19.35,-19.35z"/>
  <g id="_1447998420576">
   <rect class="fil1" x="95.34" y="119.34" width="12.47" height="50.93" rx="6.33" ry="8.47"/>
   <circle class="fil1" cx="101.59" cy="130.16" r="17.03"/>
  </g>
 </g>
</svg>
