<?xml version="1.0" encoding="UTF-8"?>
<!DOCTYPE svg PUBLIC "-//W3C//DTD SVG 1.1//EN" "http://www.w3.org/Graphics/SVG/1.1/DTD/svg11.dtd">
<!-- Creator: CorelDRAW 2019 (64-Bit) -->
<svg xmlns="http://www.w3.org/2000/svg" xml:space="preserve" width="2.0318mm" height="2.0318mm" version="1.1" style="shape-rendering:geometricPrecision; text-rendering:geometricPrecision; image-rendering:optimizeQuality; fill-rule:evenodd; clip-rule:evenodd"
viewBox="0 0 203.18 203.18"
 xmlns:xlink="http://www.w3.org/1999/xlink">
 <defs>
  <style type="text/css">
   <![CDATA[
    .fil0 {fill:#35FFE5}
   ]]>
  </style>
 </defs>
 <g id="Слой_x0020_1">
  <metadata id="CorelCorpID_0Corel-Layer"/>
  <path class="fil0" d="M142.23 81.29l-60.95 0 0 -20.32 81.27 0 0 -40.63 -40.63 0 0 -20.32 -40.64 0 0 20.32 -20.31 0c-11.18,0 -20.32,9.15 -20.32,20.32l0 60.95c0,11.17 9.14,20.32 20.32,20.32l60.95 0 0 20.31 -81.27 0 0 40.63 40.63 0 0 20.32 40.64 0 0 -20.32 20.31 0c11.18,0 20.32,-9.14 20.32,-20.32l0 -60.94c0,-11.18 -9.14,-20.32 -20.32,-20.32z"/>
 </g>
</svg>
